<svg xmlns="http://www.w3.org/2000/svg">
    <g id="ICON_EDIT" clip-path="url(#clip0_933_135)">
        <path fill-rule="evenodd" clip-rule="evenodd" d="M1.54159 3.04159C1.92839 2.6548 2.45299 2.4375 3 2.4375H8.25C8.56066 2.4375 8.8125 2.68934 8.8125 3C8.8125 3.31066 8.56066 3.5625 8.25 3.5625H3C2.75136 3.5625 2.5129 3.66127 2.33709 3.83709C2.16127 4.0129 2.0625 4.25136 2.0625 4.5V15C2.0625 15.2486 2.16127 15.4871 2.33709 15.6629C2.5129 15.8387 2.75136 15.9375 3 15.9375H13.5C13.7486 15.9375 13.9871 15.8387 14.1629 15.6629C14.3387 15.4871 14.4375 15.2486 14.4375 15V9.75C14.4375 9.43934 14.6893 9.1875 15 9.1875C15.3107 9.1875 15.5625 9.43934 15.5625 9.75V15C15.5625 15.547 15.3452 16.0716 14.9584 16.4584C14.5716 16.8452 14.047 17.0625 13.5 17.0625H3C2.45299 17.0625 1.92839 16.8452 1.54159 16.4584C1.1548 16.0716 0.9375 15.547 0.9375 15V4.5C0.9375 3.95299 1.1548 3.42839 1.54159 3.04159Z" fill="#282846"/>
        <path fill-rule="evenodd" clip-rule="evenodd" d="M15 1.97156C14.7272 1.97156 14.4656 2.07992 14.2727 2.2728L7.25791 9.28763L6.77308 11.227L8.71242 10.7421L15.7272 3.7273C15.9201 3.53442 16.0285 3.27282 16.0285 3.00005C16.0285 2.72728 15.9201 2.46568 15.7272 2.2728C15.5344 2.07992 15.2728 1.97156 15 1.97156ZM13.4772 1.4773C13.8811 1.07344 14.4289 0.846558 15 0.846558C15.5711 0.846558 16.1189 1.07344 16.5227 1.4773C16.9266 1.88116 17.1535 2.42891 17.1535 3.00005C17.1535 3.57119 16.9266 4.11894 16.5227 4.5228L9.39774 11.6478C9.32565 11.7199 9.23533 11.771 9.13642 11.7958L6.13642 12.5458C5.94474 12.5937 5.74196 12.5375 5.60225 12.3978C5.46254 12.2581 5.40637 12.0553 5.45429 11.8636L6.20429 8.86362C6.22902 8.76472 6.28016 8.67439 6.35225 8.6023L13.4772 1.4773Z" fill="#282846"/>
    </g>

    <g id="ICON_TRASH">
        <path fill-rule="evenodd" clip-rule="evenodd" d="M1.6875 4.5C1.6875 4.18934 1.93934 3.9375 2.25 3.9375H15.75C16.0607 3.9375 16.3125 4.18934 16.3125 4.5C16.3125 4.81066 16.0607 5.0625 15.75 5.0625H2.25C1.93934 5.0625 1.6875 4.81066 1.6875 4.5Z" fill="#F05454"/>
        <path fill-rule="evenodd" clip-rule="evenodd" d="M7.5 2.0625C7.25136 2.0625 7.0129 2.16127 6.83709 2.33709C6.66127 2.5129 6.5625 2.75136 6.5625 3V3.9375H11.4375V3C11.4375 2.75136 11.3387 2.5129 11.1629 2.33709C10.9871 2.16127 10.7486 2.0625 10.5 2.0625H7.5ZM12.5625 3.9375V3C12.5625 2.45299 12.3452 1.92839 11.9584 1.54159C11.5716 1.1548 11.047 0.9375 10.5 0.9375H7.5C6.95299 0.9375 6.42839 1.1548 6.04159 1.54159C5.6548 1.92839 5.4375 2.45299 5.4375 3V3.9375H3.75C3.43934 3.9375 3.1875 4.18934 3.1875 4.5V15C3.1875 15.547 3.4048 16.0716 3.79159 16.4584C4.17839 16.8452 4.70299 17.0625 5.25 17.0625H12.75C13.297 17.0625 13.8216 16.8452 14.2084 16.4584C14.5952 16.0716 14.8125 15.547 14.8125 15V4.5C14.8125 4.18934 14.5607 3.9375 14.25 3.9375H12.5625ZM4.3125 5.0625V15C4.3125 15.2486 4.41127 15.4871 4.58709 15.6629C4.7629 15.8387 5.00136 15.9375 5.25 15.9375H12.75C12.9986 15.9375 13.2371 15.8387 13.4129 15.6629C13.5887 15.4871 13.6875 15.2486 13.6875 15V5.0625H4.3125Z" fill="#F05454"/>
    </g>

    <g id="ICON_DANGER">
        <path fill-rule="evenodd" clip-rule="evenodd" d="M18 9C18 4.02944 13.9706 0 9 0C4.02944 0 0 4.02944 0 9C0 13.9706 4.02944 18 9 18C13.9706 18 18 13.9706 18 9ZM9 3.825C9.37279 3.825 9.675 4.12721 9.675 4.5V9.9C9.675 10.2728 9.37279 10.575 9 10.575C8.62721 10.575 8.325 10.2728 8.325 9.9V4.5C8.325 4.12721 8.62721 3.825 9 3.825ZM9 13.5C9.49706 13.5 9.9 13.0971 9.9 12.6C9.9 12.1029 9.49706 11.7 9 11.7C8.50294 11.7 8.1 12.1029 8.1 12.6C8.1 13.0971 8.50294 13.5 9 13.5Z" fill="#F05454"/>
    </g>

    <g id="ICON_ADD-TASK" fill="none">
        <path d="M14.25 2.25H3.75C2.92157 2.25 2.25 2.92157 2.25 3.75V14.25C2.25 15.0784 2.92157 15.75 3.75 15.75H14.25C15.0784 15.75 15.75 15.0784 15.75 14.25V3.75C15.75 2.92157 15.0784 2.25 14.25 2.25Z" stroke="#29A19C" stroke-width="1.5" stroke-linecap="round" stroke-linejoin="round"/>
        <path d="M9 6V12" stroke="#29A19C" stroke-width="1.5" stroke-linecap="round" stroke-linejoin="round"/>
        <path d="M6 9H12" stroke="#29A19C" stroke-width="1.5" stroke-linecap="round" stroke-linejoin="round"/>
    </g>

    <g id="ICON_CALENDAR" fill="none">
        <path fill-rule="evenodd" clip-rule="evenodd" d="M3.75 3.5625C3.23223 3.5625 2.8125 3.98223 2.8125 4.5V15C2.8125 15.5178 3.23223 15.9375 3.75 15.9375H14.25C14.7678 15.9375 15.1875 15.5178 15.1875 15V4.5C15.1875 3.98223 14.7678 3.5625 14.25 3.5625H3.75ZM1.6875 4.5C1.6875 3.36091 2.61091 2.4375 3.75 2.4375H14.25C15.3891 2.4375 16.3125 3.36091 16.3125 4.5V15C16.3125 16.1391 15.3891 17.0625 14.25 17.0625H3.75C2.61091 17.0625 1.6875 16.1391 1.6875 15V4.5Z" fill="#282846"/>
        <path fill-rule="evenodd" clip-rule="evenodd" d="M12 0.9375C12.3107 0.9375 12.5625 1.18934 12.5625 1.5V4.5C12.5625 4.81066 12.3107 5.0625 12 5.0625C11.6893 5.0625 11.4375 4.81066 11.4375 4.5V1.5C11.4375 1.18934 11.6893 0.9375 12 0.9375Z" fill="#282846"/>
        <path fill-rule="evenodd" clip-rule="evenodd" d="M6 0.9375C6.31066 0.9375 6.5625 1.18934 6.5625 1.5V4.5C6.5625 4.81066 6.31066 5.0625 6 5.0625C5.68934 5.0625 5.4375 4.81066 5.4375 4.5V1.5C5.4375 1.18934 5.68934 0.9375 6 0.9375Z" fill="#282846"/>
        <path fill-rule="evenodd" clip-rule="evenodd" d="M1.6875 7.5C1.6875 7.18934 1.93934 6.9375 2.25 6.9375H15.75C16.0607 6.9375 16.3125 7.18934 16.3125 7.5C16.3125 7.81066 16.0607 8.0625 15.75 8.0625H2.25C1.93934 8.0625 1.6875 7.81066 1.6875 7.5Z" fill="#282846"/>
    </g>

    <g id="ICON_ADD-CIRCLE" fill="none">
        <path d="m 8.9974954,17.095458 c 4.4724166,0 8.0979666,-3.625547 8.0979666,-8.0979644 0,-4.4723801 -3.62555,-8.09796508 -8.0979666,-8.09796508 -4.4723811,0 -8.09796688,3.62558498 -8.09796688,8.09796508 0,4.4724174 3.62558578,8.0979644 8.09796688,8.0979644 z" stroke="#fafafa" stroke-width="1.80407" stroke-linecap="round" stroke-linejoin="round" id="path2" />
        <path d="M 8.9974954,5.7582176 V 12.236589" stroke="#fafafa" stroke-width="1.80407" stroke-linecap="round" stroke-linejoin="round" id="path4" />
        <path d="M 5.7583266,8.9974936 H 12.236682" stroke="#fafafa" stroke-width="1.80407" stroke-linecap="round" stroke-linejoin="round" id="path6" />
    </g>
</svg>
